<svg width="40" height="40" viewBox="0 0 40 40" fill="none" xmlns="http://www.w3.org/2000/svg">
<path d="M33.2541 13.2001C33.2744 13.494 33.2744 13.7878 33.2744 14.0844C33.2744 23.1209 26.3951 33.5427 13.8161 33.5427V33.5373C10.1002 33.5427 6.46149 32.4783 3.33331 30.4714C3.87363 30.5364 4.41666 30.5689 4.96105 30.5703C8.04047 30.573 11.0319 29.5398 13.4545 27.6371C10.5281 27.5816 7.96193 25.6736 7.06546 22.888C8.09058 23.0857 9.14684 23.0451 10.153 22.7702C6.96254 22.1256 4.66719 19.3224 4.66719 16.0669C4.66719 16.0372 4.66719 16.0087 4.66719 15.9803C5.61783 16.5098 6.68222 16.8036 7.77099 16.8361C4.76604 14.8279 3.83978 10.8303 5.65439 7.70484C9.12653 11.9773 14.2494 14.5746 19.7488 14.8495C19.1976 12.4743 19.9506 9.98529 21.7272 8.31558C24.4817 5.72637 28.8137 5.85908 31.4029 8.61214C32.9345 8.31016 34.4025 7.74817 35.7458 6.95191C35.2353 8.53495 34.1668 9.87966 32.7395 10.7342C34.095 10.5744 35.4194 10.2114 36.6666 9.65758C35.7485 11.0334 34.592 12.2319 33.2541 13.2001Z" fill="#585858"/>
</svg>
