<svg width="40" height="40" viewBox="0 0 40 40" fill="none" xmlns="http://www.w3.org/2000/svg">
<path fill-rule="evenodd" clip-rule="evenodd" d="M32.9867 9.02439C34.4202 9.4095 35.5541 10.5434 35.9392 11.9769C36.6453 14.5871 36.6666 20 36.6666 20C36.6666 20 36.6666 25.4343 35.9606 28.0231C35.5755 29.4566 34.4416 30.5905 33.0081 30.9756C30.4193 31.6816 20 31.6816 20 31.6816C20 31.6816 9.58064 31.6816 6.99185 30.9756C5.55839 30.5905 4.42446 29.4566 4.03935 28.0231C3.33331 25.4129 3.33331 20 3.33331 20C3.33331 20 3.33331 14.5871 4.01795 11.9983C4.40306 10.5648 5.53699 9.4309 6.97045 9.04579C9.55925 8.33975 19.9786 8.31836 19.9786 8.31836C19.9786 8.31836 30.3979 8.31836 32.9867 9.02439ZM25.3059 20L16.6624 25.0064V14.9936L25.3059 20Z" fill="#585858"/>
</svg>
